<svg xmlns="http://www.w3.org/2000/svg" xmlns:xlink="http://www.w3.org/1999/xlink" width="500" zoomAndPan="magnify" viewBox="0 0 375 374.999991" height="500" preserveAspectRatio="xMidYMid meet" version="1.0"><defs><clipPath id="57198ded08"><path d="M 112.5 112.5 L 262.5 112.5 L 262.5 262.5 L 112.5 262.5 Z M 112.5 112.5 " clip-rule="nonzero"/></clipPath></defs><rect x="-37.5" width="450" fill="#ffffff" y="-37.499999" height="449.999989" fill-opacity="1"/><rect x="-37.5" width="450" fill="#ffffff" y="-37.499999" height="449.999989" fill-opacity="1"/><g clip-path="url(#57198ded08)"><path stroke-linecap="butt" transform="matrix(2.34375, 0, 0, 2.34375, -2587.499826, -487.499968)" fill="none" stroke-linejoin="round" d="M -0.000074416 -0.0000136587 L 1280.00001 -0.0000136587 L 1280.00001 800.000039 L -0.000074416 800.000039 Z M -0.000074416 -0.0000136587 " stroke="#4f2b1d" stroke-width="1" stroke-opacity="1" stroke-miterlimit="2"/></g><path stroke-linecap="butt" transform="matrix(2.029746, 1.171875, -1.171875, 2.029746, -904.151192, -1396.635388)" fill-opacity="1" fill="#4f2b1d" fill-rule="evenodd" stroke-linejoin="round" d="M 737.673126 328.230993 C 738.49367 328.055549 739.333601 328.427018 739.757931 329.151979 C 739.955088 329.463465 740.106532 329.72244 740.106532 329.72244 C 740.106532 329.72244 745.205822 338.581332 739.429028 352.782305 C 737.079463 358.559408 736.492369 366.082533 738.434476 371.679693 C 738.69807 372.426249 738.481401 373.257635 737.890231 373.7837 C 737.297618 374.310597 736.446627 374.426639 735.734966 374.077339 C 730.192785 371.374673 722.027068 365.057909 722.020604 352.000046 C 722.014275 340.225749 728.811812 330.279421 737.673126 328.230993 Z M 737.673126 328.230993 " stroke="#4f2b1d" stroke-width="1" stroke-opacity="1" stroke-miterlimit="2"/><path stroke-linecap="butt" transform="matrix(-2.029746, -1.171875, 1.171875, -2.029746, 1281.031912, 1770.216436)" fill-opacity="1" fill="#4f2b1d" fill-rule="evenodd" stroke-linejoin="round" d="M 737.609571 328.246032 C 738.464593 328.060305 739.343451 328.445864 739.784671 329.203414 C 739.969105 329.489529 740.105549 329.722523 740.105549 329.722523 C 740.105549 329.722523 745.206282 338.580582 739.429489 352.781554 C 737.099952 358.50668 736.502782 365.94902 738.383194 371.525988 C 738.645687 372.303972 738.415091 373.164569 737.796274 373.702746 C 737.176847 374.243201 736.293595 374.356699 735.55994 373.989305 C 730.020244 371.240941 722.02754 364.920512 722.021065 351.999296 C 722.016522 340.254759 728.779417 330.328431 737.609571 328.246032 Z M 737.609571 328.246032 " stroke="#4f2b1d" stroke-width="1" stroke-opacity="1" stroke-miterlimit="2"/></svg>